<svg id="svg" version="1.1" xmlns="http://www.w3.org/2000/svg" xmlns:xlink="http://www.w3.org/1999/xlink" width="400" height="400" viewBox="0, 0, 400,400"><g id="svgg"><path id="path0" d="M91.400 57.198 C 72.844 59.924,59.402 72.605,55.144 91.400 C 54.329 94.996,54.335 305.443,55.150 309.000 C 59.208 326.713,72.107 339.230,90.200 343.014 C 94.582 343.931,305.991 343.893,310.400 342.975 C 324.516 340.036,334.774 332.384,341.306 319.920 C 342.493 317.654,343.141 315.850,344.868 310.000 C 345.657 307.329,345.657 92.671,344.868 90.000 C 343.120 84.080,342.469 82.299,341.068 79.600 C 335.590 69.054,325.076 60.689,314.400 58.385 C 313.190 58.124,311.750 57.705,311.200 57.455 C 310.056 56.934,94.906 56.683,91.400 57.198 M312.174 69.139 C 323.742 73.054,330.522 80.016,334.052 91.600 C 334.888 94.346,334.868 305.258,334.031 308.200 C 332.539 313.445,331.011 314.994,329.779 312.512 C 329.537 312.024,328.964 311.124,328.506 310.512 C 328.049 309.901,326.185 307.420,324.364 305.000 C 314.606 292.028,311.389 287.781,311.186 287.600 C 311.063 287.490,310.529 286.770,310.000 286.000 C 309.471 285.230,308.940 284.510,308.819 284.400 C 308.699 284.290,306.448 281.320,303.818 277.800 C 301.188 274.280,298.931 271.310,298.802 271.200 C 298.674 271.090,295.911 267.447,292.664 263.105 C 284.424 252.087,283.279 251.432,278.331 254.900 C 272.648 258.883,272.387 258.789,267.573 250.994 C 266.216 248.797,264.317 245.787,263.353 244.305 C 262.389 242.822,261.600 241.505,261.600 241.377 C 261.600 241.249,261.086 240.392,260.458 239.472 C 259.829 238.552,258.598 236.630,257.722 235.200 C 256.356 232.971,252.139 226.210,243.939 213.100 C 241.367 208.989,238.565 204.493,236.222 200.721 C 233.919 197.012,233.137 196.239,232.044 196.586 C 230.867 196.960,216.569 211.627,210.584 218.600 C 209.074 220.360,207.739 221.890,207.619 222.000 C 207.499 222.110,206.415 223.370,205.210 224.800 C 204.006 226.230,202.922 227.490,202.802 227.600 C 202.681 227.710,200.253 230.500,197.405 233.800 C 194.557 237.100,192.130 239.890,192.013 240.000 C 191.895 240.110,190.629 241.550,189.200 243.199 C 187.770 244.849,186.420 246.393,186.200 246.630 C 185.789 247.074,182.354 250.993,179.238 254.575 C 177.187 256.932,172.560 262.118,171.400 263.359 C 170.960 263.830,169.250 265.741,167.600 267.605 C 158.012 278.440,153.088 283.765,146.888 290.000 C 140.902 296.021,138.514 298.117,132.529 302.605 C 130.951 303.789,129.331 305.031,128.929 305.366 C 127.747 306.352,111.842 318.909,110.392 320.000 C 109.662 320.550,107.250 322.450,105.032 324.222 C 95.644 331.722,96.311 331.453,90.225 330.194 C 78.103 327.685,69.169 318.997,66.170 306.800 C 65.139 302.611,65.377 96.335,66.417 92.208 C 69.588 79.620,79.417 70.569,92.400 68.280 C 92.950 68.183,142.000 68.126,201.400 68.152 L 309.400 68.200 312.174 69.139 M216.802 251.403 C 217.187 251.867,217.201 252.396,216.860 253.703 C 216.616 254.636,215.864 258.100,215.189 261.400 C 214.513 264.700,213.340 270.370,212.581 274.000 C 211.823 277.630,211.202 280.831,211.201 281.113 C 211.200 281.628,213.774 280.378,216.062 278.754 C 216.646 278.339,217.233 278.000,217.368 278.000 C 217.502 278.000,218.555 277.393,219.706 276.650 C 229.776 270.160,231.742 269.151,232.166 270.256 C 232.492 271.106,232.170 271.572,226.809 278.000 C 221.966 283.806,221.726 284.091,218.400 287.998 C 217.190 289.419,215.840 291.028,215.400 291.574 C 214.960 292.120,213.713 293.525,212.629 294.697 C 210.181 297.343,210.878 297.946,203.446 286.761 C 199.125 280.260,199.879 280.493,192.800 283.462 C 190.490 284.430,188.240 285.374,187.800 285.558 C 187.360 285.742,186.550 286.073,186.000 286.293 C 184.469 286.905,183.138 287.459,181.600 288.123 C 175.604 290.711,173.180 291.338,172.627 290.444 C 172.507 290.249,175.241 287.505,178.704 284.347 C 182.167 281.189,185.810 277.853,186.800 276.934 C 187.790 276.014,189.050 274.875,189.600 274.401 C 191.021 273.177,199.043 266.018,201.031 264.200 C 201.272 263.980,202.803 262.630,204.434 261.201 C 207.065 258.896,209.879 256.300,214.300 252.100 C 215.850 250.628,216.101 250.558,216.802 251.403 " stroke="none" fill="#0b2d44" fill-rule="evenodd"></path><path id="path1" d="M0.000 200.000 L 0.000 400.000 200.000 400.000 L 400.000 400.000 400.000 200.000 L 400.000 0.000 200.000 0.000 L 0.000 0.000 0.000 200.000 M312.200 57.139 C 313.080 57.430,314.520 57.850,315.400 58.073 C 316.280 58.296,317.313 58.640,317.695 58.839 C 318.077 59.038,318.617 59.202,318.895 59.205 C 322.076 59.237,332.948 67.164,336.845 72.293 C 337.809 73.562,338.689 74.690,338.800 74.800 C 340.806 76.784,344.536 85.633,345.663 91.085 C 346.463 94.954,346.615 301.181,345.822 306.891 C 343.224 325.597,329.398 339.756,310.000 343.575 C 306.310 344.301,93.421 344.171,89.800 343.440 C 85.092 342.490,82.815 341.745,78.800 339.840 C 71.210 336.239,64.039 329.672,59.974 322.600 C 57.518 318.326,55.870 314.235,54.738 309.600 C 53.764 305.614,53.960 93.506,54.941 89.800 C 56.289 84.709,58.828 78.422,59.680 78.067 C 59.856 77.993,60.000 77.756,60.000 77.539 C 60.000 76.737,62.597 73.267,66.139 69.334 C 71.779 63.073,82.135 57.882,91.400 56.671 C 95.128 56.184,310.693 56.640,312.200 57.139 M90.200 69.243 C 89.540 69.452,88.370 69.810,87.600 70.038 C 84.731 70.888,82.641 71.887,79.800 73.766 C 74.651 77.171,68.000 85.718,68.000 88.929 C 68.000 89.225,67.865 89.602,67.700 89.766 C 66.236 91.231,66.244 90.647,66.110 198.200 C 66.022 268.334,66.114 303.077,66.392 304.894 C 68.370 317.798,77.862 327.338,91.200 329.825 C 95.790 330.681,96.619 330.456,100.391 327.332 C 101.396 326.500,119.380 312.271,120.636 311.314 C 121.276 310.826,122.250 310.070,122.800 309.633 C 123.350 309.196,126.115 307.007,128.945 304.768 L 134.091 300.698 135.801 297.049 C 136.741 295.042,139.580 288.720,142.109 283.000 C 146.704 272.606,147.835 270.084,150.086 265.200 C 150.745 263.770,153.986 256.660,157.287 249.400 C 160.588 242.140,163.989 234.719,164.845 232.908 C 165.700 231.098,166.400 229.539,166.400 229.445 C 166.400 229.351,167.185 227.592,168.144 225.537 C 170.249 221.028,171.535 218.222,173.800 213.200 C 174.742 211.110,175.983 208.365,176.557 207.100 C 181.460 196.289,182.684 197.068,160.382 196.800 C 137.068 196.519,138.144 198.342,149.286 178.000 C 149.828 177.010,151.315 174.220,152.591 171.800 C 153.866 169.380,155.849 165.690,156.997 163.600 C 158.145 161.510,160.024 158.026,161.172 155.859 C 162.320 153.691,163.593 151.325,164.000 150.600 C 164.407 149.875,165.680 147.509,166.828 145.341 C 169.097 141.058,170.607 138.253,173.793 132.400 C 174.932 130.310,176.820 126.800,177.991 124.600 C 179.161 122.400,180.608 119.700,181.207 118.600 C 183.619 114.165,187.082 107.709,192.578 97.400 C 197.142 88.838,199.177 86.257,201.724 85.797 C 205.387 85.136,261.166 85.795,261.879 86.507 C 263.683 88.312,263.077 89.701,253.464 105.800 C 251.493 109.100,249.572 112.340,249.195 113.000 C 247.092 116.680,245.264 119.774,243.406 122.800 C 241.212 126.375,233.997 138.491,232.758 140.683 C 232.359 141.388,230.586 144.366,228.817 147.300 C 223.440 156.216,222.507 155.710,244.171 155.626 C 261.700 155.558,262.289 155.605,263.487 157.165 C 264.813 158.892,264.821 158.881,253.850 171.203 C 253.162 171.975,251.430 173.955,250.000 175.603 C 248.571 177.252,247.307 178.690,247.193 178.800 C 247.078 178.910,245.821 180.350,244.399 182.000 C 242.977 183.650,241.000 185.912,240.007 187.027 C 231.715 196.329,232.433 195.135,234.085 196.873 C 235.240 198.088,236.647 200.211,238.834 204.034 C 239.183 204.644,240.194 206.281,241.079 207.671 C 241.965 209.062,244.266 212.720,246.191 215.800 C 248.117 218.880,250.482 222.613,251.446 224.095 C 252.411 225.578,253.200 226.892,253.200 227.017 C 253.200 227.142,253.920 228.304,254.800 229.600 C 255.680 230.896,256.400 232.146,256.400 232.378 C 256.400 232.610,256.580 232.800,256.800 232.800 C 257.020 232.800,257.200 232.982,257.200 233.205 C 257.200 233.427,257.990 234.822,258.956 236.305 C 259.921 237.787,262.883 242.510,265.537 246.800 C 272.464 257.994,272.958 258.404,276.307 255.730 C 282.823 250.527,284.146 250.974,291.625 260.903 C 302.047 274.738,304.983 278.607,305.207 278.800 C 305.334 278.910,305.871 279.630,306.400 280.400 C 306.929 281.170,307.463 281.890,307.587 282.000 C 307.711 282.110,310.506 285.800,313.797 290.200 C 317.089 294.600,319.999 298.470,320.265 298.800 C 321.883 300.810,329.344 310.879,330.120 312.100 C 331.469 314.223,332.785 312.160,333.821 306.300 C 334.541 302.222,334.671 97.187,333.955 94.000 C 332.963 89.587,332.609 88.445,331.469 86.000 C 327.607 77.716,320.385 71.880,310.880 69.362 C 308.313 68.681,92.339 68.566,90.200 69.243 M212.800 254.108 C 211.370 255.480,208.404 258.222,206.210 260.201 C 204.015 262.181,201.225 264.706,200.010 265.813 C 198.794 266.920,196.990 268.525,196.000 269.380 C 193.801 271.279,188.494 276.055,182.643 281.400 C 180.235 283.600,177.440 286.117,176.432 286.993 C 172.298 290.586,172.489 291.250,177.122 289.396 C 181.820 287.517,194.160 282.363,195.286 281.809 C 199.210 279.880,199.600 280.133,204.819 287.987 C 207.080 291.390,209.359 294.630,209.885 295.187 L 210.839 296.200 211.865 295.000 C 212.429 294.340,213.277 293.350,213.750 292.800 C 217.000 289.021,227.484 276.435,229.577 273.800 C 232.605 269.987,232.224 269.519,228.131 272.026 C 226.629 272.947,224.860 274.014,224.200 274.399 C 223.091 275.045,213.731 280.758,211.718 282.018 C 210.186 282.977,210.255 281.956,212.382 272.300 C 212.999 269.498,213.474 267.271,213.982 264.800 C 214.231 263.590,214.590 261.880,214.780 261.000 C 217.049 250.499,216.944 250.133,212.800 254.108 " stroke="none" fill="#faf6ee" fill-rule="evenodd"></path><path id="path2" d="M200.557 86.228 C 198.333 87.332,196.951 89.272,192.597 97.400 C 185.363 110.906,183.093 115.132,181.207 118.600 C 180.608 119.700,179.161 122.400,177.991 124.600 C 176.820 126.800,174.932 130.310,173.793 132.400 C 170.607 138.253,169.097 141.058,166.828 145.341 C 165.680 147.509,164.407 149.875,164.000 150.600 C 163.593 151.325,162.320 153.691,161.172 155.859 C 160.024 158.026,158.145 161.510,156.997 163.600 C 155.849 165.690,153.866 169.380,152.591 171.800 C 151.315 174.220,149.828 177.010,149.286 178.000 C 138.144 198.342,137.068 196.519,160.382 196.800 C 181.023 197.048,181.095 197.071,178.621 202.542 C 178.059 203.784,177.131 205.835,176.557 207.100 C 175.983 208.365,174.742 211.110,173.800 213.200 C 171.535 218.222,170.249 221.028,168.144 225.537 C 167.185 227.592,166.400 229.351,166.400 229.445 C 166.400 229.539,165.700 231.098,164.845 232.908 C 163.989 234.719,160.588 242.140,157.287 249.400 C 153.986 256.660,150.745 263.770,150.086 265.200 C 147.843 270.065,146.710 272.593,142.107 283.000 C 139.576 288.720,136.804 294.911,135.945 296.758 C 134.045 300.843,134.090 300.915,137.047 298.523 C 143.102 293.623,150.185 286.446,161.446 273.797 C 167.824 266.633,172.283 261.640,174.840 258.800 C 176.325 257.150,179.039 254.080,180.870 251.978 C 182.702 249.876,185.460 246.723,187.000 244.970 C 188.540 243.218,190.790 240.638,192.000 239.237 C 193.210 237.836,194.382 236.490,194.606 236.245 C 194.829 236.000,196.247 234.360,197.758 232.600 C 199.270 230.840,201.343 228.500,202.366 227.400 C 203.388 226.300,204.640 224.860,205.147 224.200 C 206.148 222.897,208.815 219.822,213.761 214.269 C 219.734 207.562,231.318 196.000,232.064 196.000 C 232.469 196.000,232.802 195.775,232.805 195.500 C 232.808 195.225,233.668 194.100,234.716 193.000 C 235.764 191.900,237.247 190.253,238.011 189.339 C 239.688 187.334,246.866 179.081,247.179 178.800 C 247.301 178.690,248.571 177.252,250.000 175.603 C 251.430 173.955,253.162 171.975,253.850 171.203 C 264.821 158.881,264.813 158.892,263.487 157.165 C 262.289 155.605,261.700 155.558,244.171 155.626 C 222.507 155.710,223.440 156.216,228.817 147.300 C 230.586 144.366,232.359 141.388,232.758 140.683 C 233.997 138.491,241.212 126.375,243.406 122.800 C 245.264 119.774,247.092 116.680,249.195 113.000 C 249.572 112.340,251.493 109.100,253.464 105.800 C 263.077 89.701,263.683 88.312,261.879 86.507 C 260.858 85.486,202.585 85.220,200.557 86.228 " stroke="none" fill="#f38b3b" fill-rule="evenodd"></path><path id="path3" d="M91.400 56.671 C 79.334 58.248,68.310 65.058,61.287 75.272 C 60.579 76.302,60.000 77.322,60.000 77.539 C 60.000 77.756,59.856 77.993,59.680 78.067 C 58.828 78.422,56.289 84.709,54.941 89.800 C 53.960 93.506,53.764 305.614,54.738 309.600 C 58.331 324.309,67.665 335.216,81.800 341.224 C 83.247 341.839,86.951 342.865,89.800 343.440 C 93.421 344.171,306.310 344.301,310.000 343.575 C 329.398 339.756,343.224 325.597,345.822 306.891 C 346.615 301.181,346.463 94.954,345.663 91.085 C 344.536 85.633,340.806 76.784,338.800 74.800 C 338.689 74.690,337.809 73.562,336.845 72.293 C 332.948 67.164,322.076 59.237,318.895 59.205 C 318.617 59.202,318.077 59.038,317.695 58.839 C 317.313 58.640,316.280 58.296,315.400 58.073 C 314.520 57.850,313.080 57.430,312.200 57.139 C 310.693 56.640,95.128 56.184,91.400 56.671 M311.200 57.455 C 311.750 57.705,313.190 58.124,314.400 58.385 C 325.076 60.689,335.590 69.054,341.068 79.600 C 342.469 82.299,343.120 84.080,344.868 90.000 C 345.657 92.671,345.657 307.329,344.868 310.000 C 343.141 315.850,342.493 317.654,341.306 319.920 C 334.774 332.384,324.516 340.036,310.400 342.975 C 305.991 343.893,94.582 343.931,90.200 343.014 C 72.107 339.230,59.208 326.713,55.150 309.000 C 54.335 305.443,54.329 94.996,55.144 91.400 C 59.402 72.605,72.844 59.924,91.400 57.198 C 94.906 56.683,310.056 56.934,311.200 57.455 M92.400 68.280 C 79.417 70.569,69.588 79.620,66.417 92.208 C 65.377 96.335,65.139 302.611,66.170 306.800 C 69.169 318.997,78.103 327.685,90.225 330.194 C 96.311 331.453,95.644 331.722,105.032 324.222 C 107.250 322.450,109.662 320.550,110.392 320.000 C 111.891 318.871,127.779 306.326,128.976 305.326 C 129.403 304.969,130.798 303.882,132.076 302.910 C 133.354 301.938,134.400 300.980,134.400 300.781 C 134.400 300.582,132.089 302.260,129.264 304.510 C 126.440 306.759,123.605 308.999,122.964 309.486 C 122.324 309.974,121.350 310.729,120.800 311.164 C 120.250 311.599,115.570 315.302,110.400 319.392 C 105.230 323.481,100.726 327.055,100.391 327.332 C 96.619 330.456,95.790 330.681,91.200 329.825 C 77.862 327.338,68.370 317.798,66.392 304.894 C 66.114 303.077,66.022 268.334,66.110 198.200 C 66.244 90.647,66.236 91.231,67.700 89.766 C 67.865 89.602,68.000 89.225,68.000 88.929 C 68.000 87.053,71.952 80.801,75.177 77.577 C 79.334 73.419,83.607 71.039,89.920 69.363 C 93.094 68.520,307.700 68.519,310.880 69.362 C 320.385 71.880,327.607 77.716,331.469 86.000 C 332.609 88.445,332.963 89.587,333.955 94.000 C 334.671 97.187,334.541 302.222,333.821 306.300 C 332.785 312.160,331.469 314.223,330.120 312.100 C 329.344 310.879,321.883 300.810,320.265 298.800 C 319.999 298.470,317.089 294.600,313.797 290.200 C 310.506 285.800,307.711 282.110,307.587 282.000 C 307.463 281.890,306.929 281.170,306.400 280.400 C 305.871 279.630,305.334 278.910,305.207 278.800 C 304.983 278.607,302.047 274.738,291.625 260.903 C 284.146 250.974,282.823 250.527,276.307 255.730 C 272.958 258.404,272.464 257.994,265.537 246.800 C 262.883 242.510,259.921 237.787,258.956 236.305 C 257.990 234.822,257.200 233.427,257.200 233.205 C 257.200 232.982,257.020 232.800,256.800 232.800 C 256.580 232.800,256.400 232.610,256.400 232.378 C 256.400 232.146,255.680 230.896,254.800 229.600 C 253.920 228.304,253.200 227.142,253.200 227.017 C 253.200 226.892,252.411 225.578,251.446 224.095 C 250.482 222.613,248.119 218.880,246.196 215.800 C 244.273 212.720,241.912 208.987,240.950 207.505 C 239.987 206.022,239.200 204.723,239.200 204.617 C 239.200 203.747,233.711 196.000,233.095 196.000 C 232.850 196.000,233.104 196.495,233.659 197.100 C 234.214 197.705,235.451 199.460,236.408 201.000 C 237.366 202.540,239.015 205.195,240.074 206.900 C 241.133 208.605,242.873 211.395,243.939 213.100 C 252.139 226.210,256.356 232.971,257.722 235.200 C 258.598 236.630,259.829 238.552,260.458 239.472 C 261.086 240.392,261.600 241.249,261.600 241.377 C 261.600 241.505,262.389 242.822,263.353 244.305 C 264.317 245.787,266.216 248.797,267.573 250.994 C 270.747 256.133,271.609 257.146,273.033 257.407 C 274.298 257.639,274.684 257.456,278.331 254.900 C 283.279 251.432,284.424 252.087,292.664 263.105 C 295.911 267.447,298.674 271.090,298.802 271.200 C 298.931 271.310,301.188 274.280,303.818 277.800 C 306.448 281.320,308.699 284.290,308.819 284.400 C 308.940 284.510,309.471 285.230,310.000 286.000 C 310.529 286.770,311.063 287.490,311.186 287.600 C 311.389 287.781,314.606 292.028,324.364 305.000 C 326.185 307.420,328.049 309.901,328.506 310.512 C 328.964 311.124,329.537 312.024,329.779 312.512 C 331.011 314.994,332.539 313.445,334.031 308.200 C 334.868 305.258,334.888 94.346,334.052 91.600 C 330.522 80.016,323.742 73.054,312.174 69.139 L 309.400 68.200 201.400 68.152 C 142.000 68.126,92.950 68.183,92.400 68.280 M214.300 252.100 C 209.879 256.300,207.065 258.896,204.434 261.201 C 202.803 262.630,201.272 263.980,201.031 264.200 C 199.043 266.018,191.021 273.177,189.600 274.401 C 189.050 274.875,187.790 276.014,186.800 276.934 C 185.810 277.853,182.167 281.189,178.704 284.347 C 175.241 287.505,172.507 290.249,172.627 290.444 C 173.180 291.338,175.604 290.711,181.600 288.123 C 183.138 287.459,184.469 286.905,186.000 286.293 C 186.550 286.073,187.360 285.742,187.800 285.558 C 188.240 285.374,190.490 284.430,192.800 283.462 C 199.879 280.493,199.125 280.260,203.446 286.761 C 210.878 297.946,210.181 297.343,212.629 294.697 C 213.713 293.525,214.960 292.120,215.400 291.574 C 215.840 291.028,217.190 289.419,218.400 287.998 C 232.487 271.452,233.804 269.600,231.486 269.600 C 231.094 269.600,224.802 273.366,219.706 276.650 C 218.555 277.393,217.502 278.000,217.368 278.000 C 217.233 278.000,216.646 278.339,216.062 278.754 C 213.774 280.378,211.200 281.628,211.201 281.113 C 211.202 280.831,211.823 277.630,212.581 274.000 C 213.340 270.370,214.513 264.700,215.189 261.400 C 215.864 258.100,216.616 254.636,216.860 253.703 C 217.625 250.769,216.465 250.043,214.300 252.100 M216.276 253.100 C 216.014 254.815,215.289 258.647,214.780 261.000 C 214.590 261.880,214.231 263.590,213.982 264.800 C 213.474 267.271,212.999 269.498,212.382 272.300 C 210.255 281.956,210.186 282.977,211.718 282.018 C 213.731 280.758,223.091 275.045,224.200 274.399 C 224.860 274.014,226.629 272.947,228.131 272.026 C 232.224 269.519,232.605 269.987,229.577 273.800 C 227.484 276.435,217.000 289.021,213.750 292.800 C 213.277 293.350,212.429 294.340,211.865 295.000 L 210.839 296.200 209.885 295.187 C 209.359 294.630,207.080 291.390,204.819 287.987 C 199.600 280.133,199.210 279.880,195.286 281.809 C 194.160 282.363,181.820 287.517,177.122 289.396 C 172.489 291.250,172.298 290.586,176.432 286.993 C 177.440 286.117,180.235 283.600,182.643 281.400 C 188.494 276.055,193.801 271.279,196.000 269.380 C 196.990 268.525,198.794 266.920,200.010 265.813 C 201.225 264.706,204.015 262.181,206.210 260.201 C 208.404 258.222,211.370 255.480,212.800 254.108 C 215.878 251.156,216.605 250.945,216.276 253.100 " stroke="none" fill="#888a90" fill-rule="evenodd"></path><path id="path4" d="M224.125 203.360 C 220.163 207.408,215.499 212.317,213.761 214.269 C 208.815 219.822,206.148 222.897,205.147 224.200 C 204.640 224.860,203.388 226.300,202.366 227.400 C 201.343 228.500,199.270 230.840,197.758 232.600 C 196.247 234.360,194.829 236.000,194.606 236.245 C 194.382 236.490,193.210 237.836,192.000 239.237 C 190.790 240.638,188.540 243.218,187.000 244.970 C 185.460 246.723,182.702 249.876,180.870 251.978 C 179.039 254.080,176.325 257.150,174.840 258.800 C 172.283 261.640,167.824 266.633,161.446 273.797 C 150.217 286.410,143.134 293.589,137.200 298.375 C 134.121 300.858,134.181 300.800,134.697 300.800 C 135.513 300.800,140.459 296.411,146.828 290.035 C 153.058 283.797,157.861 278.611,167.600 267.605 C 169.250 265.741,170.960 263.830,171.400 263.359 C 172.560 262.118,177.187 256.932,179.238 254.575 C 182.354 250.993,185.789 247.074,186.200 246.630 C 186.420 246.393,187.770 244.849,189.200 243.199 C 190.629 241.550,191.895 240.110,192.013 240.000 C 192.130 239.890,194.557 237.100,197.405 233.800 C 200.253 230.500,202.681 227.710,202.802 227.600 C 202.922 227.490,204.006 226.230,205.210 224.800 C 206.415 223.370,207.499 222.110,207.619 222.000 C 207.739 221.890,209.074 220.360,210.584 218.600 C 216.219 212.035,229.982 197.843,231.776 196.750 C 232.815 196.116,232.874 196.003,232.164 196.001 C 231.607 196.000,228.930 198.450,224.125 203.360 " stroke="none" fill="#a26938" fill-rule="evenodd"></path></g></svg>